<mxfile host="app.diagrams.net" agent="Mozilla/5.0 (X11; Linux x86_64) AppleWebKit/537.36 (KHTML, like Gecko) Chrome/131.0.0.0 Safari/537.36" version="25.0.3">
  <diagram name="Page-1" id="uXPbH95ByCBzDKhCJnWL">
    <mxGraphModel dx="2098" dy="1229" grid="1" gridSize="10" guides="1" tooltips="1" connect="1" arrows="1" fold="1" page="1" pageScale="1" pageWidth="850" pageHeight="1100" math="0" shadow="0">
      <root>
        <mxCell id="0" />
        <mxCell id="1" parent="0" />
        <mxCell id="dIz83t2OZfv5tZXX2gFK-1" value="Process, translate and deduplicate CDS sequences" style="rounded=1;whiteSpace=wrap;html=1;absoluteArcSize=1;arcSize=14;strokeWidth=2;fillColor=#dae8fc;strokeColor=#6c8ebf;" vertex="1" parent="1">
          <mxGeometry x="40" y="110" width="100" height="100" as="geometry" />
        </mxCell>
        <mxCell id="dIz83t2OZfv5tZXX2gFK-13" style="edgeStyle=orthogonalEdgeStyle;rounded=0;orthogonalLoop=1;jettySize=auto;html=1;entryX=0.5;entryY=0;entryDx=0;entryDy=0;" edge="1" parent="1" source="dIz83t2OZfv5tZXX2gFK-2" target="dIz83t2OZfv5tZXX2gFK-1">
          <mxGeometry relative="1" as="geometry" />
        </mxCell>
        <mxCell id="dIz83t2OZfv5tZXX2gFK-2" value="unclassified_&lt;div&gt;sequences.fasta&lt;/div&gt;" style="strokeWidth=2;html=1;shape=mxgraph.flowchart.document2;whiteSpace=wrap;size=0.25;fillColor=#fff2cc;strokeColor=#d6b656;" vertex="1" parent="1">
          <mxGeometry x="40" y="10" width="100" height="60" as="geometry" />
        </mxCell>
        <mxCell id="dIz83t2OZfv5tZXX2gFK-12" style="edgeStyle=orthogonalEdgeStyle;rounded=0;orthogonalLoop=1;jettySize=auto;html=1;" edge="1" parent="1" source="dIz83t2OZfv5tZXX2gFK-3" target="dIz83t2OZfv5tZXX2gFK-11">
          <mxGeometry relative="1" as="geometry" />
        </mxCell>
        <mxCell id="dIz83t2OZfv5tZXX2gFK-3" value="Clustering by minimizers" style="rounded=1;whiteSpace=wrap;html=1;absoluteArcSize=1;arcSize=14;strokeWidth=2;fillColor=#dae8fc;strokeColor=#6c8ebf;" vertex="1" parent="1">
          <mxGeometry x="170" y="110" width="100" height="100" as="geometry" />
        </mxCell>
        <mxCell id="dIz83t2OZfv5tZXX2gFK-4" value="CDS_not_&lt;div&gt;found.fasta&lt;/div&gt;" style="strokeWidth=2;html=1;shape=mxgraph.flowchart.document2;whiteSpace=wrap;size=0.25;fillColor=#f8cecc;strokeColor=#b85450;" vertex="1" parent="1">
          <mxGeometry x="40" y="260" width="100" height="60" as="geometry" />
        </mxCell>
        <mxCell id="dIz83t2OZfv5tZXX2gFK-10" style="edgeStyle=orthogonalEdgeStyle;rounded=0;orthogonalLoop=1;jettySize=auto;html=1;entryX=0.5;entryY=1;entryDx=0;entryDy=0;" edge="1" parent="1" source="dIz83t2OZfv5tZXX2gFK-5" target="dIz83t2OZfv5tZXX2gFK-3">
          <mxGeometry relative="1" as="geometry" />
        </mxCell>
        <mxCell id="dIz83t2OZfv5tZXX2gFK-5" value="&lt;div&gt;CDS_not_found_&lt;/div&gt;&lt;div&gt;translation.fasta&lt;/div&gt;" style="strokeWidth=2;html=1;shape=mxgraph.flowchart.document2;whiteSpace=wrap;size=0.25;fillColor=#f8cecc;strokeColor=#b85450;" vertex="1" parent="1">
          <mxGeometry x="170" y="260" width="100" height="60" as="geometry" />
        </mxCell>
        <mxCell id="dIz83t2OZfv5tZXX2gFK-7" style="edgeStyle=orthogonalEdgeStyle;rounded=0;orthogonalLoop=1;jettySize=auto;html=1;entryX=0.5;entryY=0;entryDx=0;entryDy=0;entryPerimeter=0;" edge="1" parent="1" source="dIz83t2OZfv5tZXX2gFK-1" target="dIz83t2OZfv5tZXX2gFK-4">
          <mxGeometry relative="1" as="geometry" />
        </mxCell>
        <mxCell id="dIz83t2OZfv5tZXX2gFK-9" style="edgeStyle=orthogonalEdgeStyle;rounded=0;orthogonalLoop=1;jettySize=auto;html=1;entryX=0.25;entryY=0;entryDx=0;entryDy=0;entryPerimeter=0;" edge="1" parent="1" source="dIz83t2OZfv5tZXX2gFK-1" target="dIz83t2OZfv5tZXX2gFK-5">
          <mxGeometry relative="1" as="geometry">
            <Array as="points">
              <mxPoint x="90" y="240" />
              <mxPoint x="195" y="240" />
            </Array>
          </mxGeometry>
        </mxCell>
        <mxCell id="dIz83t2OZfv5tZXX2gFK-11" value="Prepare clusters DNA sequences for BLAST" style="rounded=1;whiteSpace=wrap;html=1;absoluteArcSize=1;arcSize=14;strokeWidth=2;fillColor=#dae8fc;strokeColor=#6c8ebf;" vertex="1" parent="1">
          <mxGeometry x="300" y="110" width="100" height="100" as="geometry" />
        </mxCell>
        <mxCell id="dIz83t2OZfv5tZXX2gFK-25" style="edgeStyle=orthogonalEdgeStyle;rounded=0;orthogonalLoop=1;jettySize=auto;html=1;entryX=0;entryY=0.5;entryDx=0;entryDy=0;" edge="1" parent="1" source="dIz83t2OZfv5tZXX2gFK-14" target="dIz83t2OZfv5tZXX2gFK-19">
          <mxGeometry relative="1" as="geometry">
            <Array as="points">
              <mxPoint x="410" y="290" />
              <mxPoint x="410" y="160" />
            </Array>
          </mxGeometry>
        </mxCell>
        <mxCell id="dIz83t2OZfv5tZXX2gFK-14" value="master.fasta" style="strokeWidth=2;html=1;shape=mxgraph.flowchart.document2;whiteSpace=wrap;size=0.25;fillColor=#f8cecc;strokeColor=#b85450;" vertex="1" parent="1">
          <mxGeometry x="300" y="260" width="100" height="60" as="geometry" />
        </mxCell>
        <mxCell id="dIz83t2OZfv5tZXX2gFK-28" style="edgeStyle=orthogonalEdgeStyle;rounded=0;orthogonalLoop=1;jettySize=auto;html=1;entryX=0.5;entryY=0;entryDx=0;entryDy=0;" edge="1" parent="1" source="dIz83t2OZfv5tZXX2gFK-15" target="dIz83t2OZfv5tZXX2gFK-23">
          <mxGeometry relative="1" as="geometry" />
        </mxCell>
        <mxCell id="dIz83t2OZfv5tZXX2gFK-15" value="cluster_&lt;div&gt;representatives&lt;/div&gt;&lt;div&gt;_fastas_dna&lt;/div&gt;" style="strokeWidth=2;html=1;shape=mxgraph.flowchart.multi-document;whiteSpace=wrap;fillColor=#f8cecc;strokeColor=#b85450;" vertex="1" parent="1">
          <mxGeometry x="306" y="10" width="88" height="60" as="geometry" />
        </mxCell>
        <mxCell id="dIz83t2OZfv5tZXX2gFK-16" style="edgeStyle=orthogonalEdgeStyle;rounded=0;orthogonalLoop=1;jettySize=auto;html=1;entryX=0.5;entryY=0;entryDx=0;entryDy=0;entryPerimeter=0;" edge="1" parent="1" source="dIz83t2OZfv5tZXX2gFK-11" target="dIz83t2OZfv5tZXX2gFK-14">
          <mxGeometry relative="1" as="geometry" />
        </mxCell>
        <mxCell id="dIz83t2OZfv5tZXX2gFK-18" style="edgeStyle=orthogonalEdgeStyle;rounded=0;orthogonalLoop=1;jettySize=auto;html=1;entryX=0.5;entryY=0.88;entryDx=0;entryDy=0;entryPerimeter=0;" edge="1" parent="1" source="dIz83t2OZfv5tZXX2gFK-11" target="dIz83t2OZfv5tZXX2gFK-15">
          <mxGeometry relative="1" as="geometry" />
        </mxCell>
        <mxCell id="dIz83t2OZfv5tZXX2gFK-19" value="Create BLASTn database" style="rounded=1;whiteSpace=wrap;html=1;absoluteArcSize=1;arcSize=14;strokeWidth=2;fillColor=#dae8fc;strokeColor=#6c8ebf;" vertex="1" parent="1">
          <mxGeometry x="430" y="110" width="100" height="100" as="geometry" />
        </mxCell>
        <mxCell id="dIz83t2OZfv5tZXX2gFK-33" style="edgeStyle=orthogonalEdgeStyle;rounded=0;orthogonalLoop=1;jettySize=auto;html=1;entryX=0.5;entryY=0;entryDx=0;entryDy=0;" edge="1" parent="1" source="dIz83t2OZfv5tZXX2gFK-23" target="dIz83t2OZfv5tZXX2gFK-30">
          <mxGeometry relative="1" as="geometry" />
        </mxCell>
        <mxCell id="dIz83t2OZfv5tZXX2gFK-23" value="Run BLASTn" style="rounded=1;whiteSpace=wrap;html=1;absoluteArcSize=1;arcSize=14;strokeWidth=2;fillColor=#dae8fc;strokeColor=#6c8ebf;" vertex="1" parent="1">
          <mxGeometry x="560" y="110" width="100" height="100" as="geometry" />
        </mxCell>
        <mxCell id="dIz83t2OZfv5tZXX2gFK-29" style="edgeStyle=orthogonalEdgeStyle;rounded=0;orthogonalLoop=1;jettySize=auto;html=1;entryX=0.5;entryY=1;entryDx=0;entryDy=0;" edge="1" parent="1" source="dIz83t2OZfv5tZXX2gFK-26" target="dIz83t2OZfv5tZXX2gFK-23">
          <mxGeometry relative="1" as="geometry" />
        </mxCell>
        <mxCell id="dIz83t2OZfv5tZXX2gFK-26" value="Blast_db_&lt;div&gt;nucleotide&lt;/div&gt;" style="strokeWidth=2;html=1;shape=mxgraph.flowchart.multi-document;whiteSpace=wrap;fillColor=#f8cecc;strokeColor=#b85450;" vertex="1" parent="1">
          <mxGeometry x="436" y="250" width="88" height="60" as="geometry" />
        </mxCell>
        <mxCell id="dIz83t2OZfv5tZXX2gFK-27" style="edgeStyle=orthogonalEdgeStyle;rounded=0;orthogonalLoop=1;jettySize=auto;html=1;entryX=0.5;entryY=0;entryDx=0;entryDy=0;entryPerimeter=0;" edge="1" parent="1" source="dIz83t2OZfv5tZXX2gFK-19" target="dIz83t2OZfv5tZXX2gFK-26">
          <mxGeometry relative="1" as="geometry" />
        </mxCell>
        <mxCell id="dIz83t2OZfv5tZXX2gFK-30" value="Based on BLASTn matches translate the clusters to run in BLASTp" style="rounded=1;whiteSpace=wrap;html=1;absoluteArcSize=1;arcSize=14;strokeWidth=2;fillColor=#dae8fc;strokeColor=#6c8ebf;" vertex="1" parent="1">
          <mxGeometry x="730" y="340" width="100" height="100" as="geometry" />
        </mxCell>
        <mxCell id="dIz83t2OZfv5tZXX2gFK-31" value="BLASTn_&lt;div&gt;results&lt;/div&gt;" style="strokeWidth=2;html=1;shape=mxgraph.flowchart.multi-document;whiteSpace=wrap;fillColor=#f8cecc;strokeColor=#b85450;" vertex="1" parent="1">
          <mxGeometry x="660" y="10" width="88" height="60" as="geometry" />
        </mxCell>
        <mxCell id="dIz83t2OZfv5tZXX2gFK-32" style="edgeStyle=orthogonalEdgeStyle;rounded=0;orthogonalLoop=1;jettySize=auto;html=1;exitX=0.75;exitY=0;exitDx=0;exitDy=0;entryX=0;entryY=0.5;entryDx=0;entryDy=0;entryPerimeter=0;" edge="1" parent="1" source="dIz83t2OZfv5tZXX2gFK-23" target="dIz83t2OZfv5tZXX2gFK-31">
          <mxGeometry relative="1" as="geometry" />
        </mxCell>
        <mxCell id="dIz83t2OZfv5tZXX2gFK-48" style="edgeStyle=orthogonalEdgeStyle;rounded=0;orthogonalLoop=1;jettySize=auto;html=1;entryX=1;entryY=0.5;entryDx=0;entryDy=0;" edge="1" parent="1" source="dIz83t2OZfv5tZXX2gFK-34" target="dIz83t2OZfv5tZXX2gFK-47">
          <mxGeometry relative="1" as="geometry" />
        </mxCell>
        <mxCell id="dIz83t2OZfv5tZXX2gFK-34" value="blastn_results_&lt;div&gt;matches_&lt;/div&gt;&lt;div&gt;translations&lt;/div&gt;" style="strokeWidth=2;html=1;shape=mxgraph.flowchart.multi-document;whiteSpace=wrap;fillColor=#f8cecc;strokeColor=#b85450;" vertex="1" parent="1">
          <mxGeometry x="612" y="400" width="88" height="60" as="geometry" />
        </mxCell>
        <mxCell id="dIz83t2OZfv5tZXX2gFK-43" style="edgeStyle=orthogonalEdgeStyle;rounded=0;orthogonalLoop=1;jettySize=auto;html=1;entryX=1;entryY=0.5;entryDx=0;entryDy=0;" edge="1" parent="1" source="dIz83t2OZfv5tZXX2gFK-36" target="dIz83t2OZfv5tZXX2gFK-38">
          <mxGeometry relative="1" as="geometry" />
        </mxCell>
        <mxCell id="dIz83t2OZfv5tZXX2gFK-49" style="edgeStyle=orthogonalEdgeStyle;rounded=0;orthogonalLoop=1;jettySize=auto;html=1;entryX=1;entryY=0.5;entryDx=0;entryDy=0;" edge="1" parent="1" source="dIz83t2OZfv5tZXX2gFK-36" target="dIz83t2OZfv5tZXX2gFK-47">
          <mxGeometry relative="1" as="geometry" />
        </mxCell>
        <mxCell id="dIz83t2OZfv5tZXX2gFK-36" value="cluster_rep_&lt;div&gt;translation&lt;/div&gt;" style="strokeWidth=2;html=1;shape=mxgraph.flowchart.multi-document;whiteSpace=wrap;fillColor=#f8cecc;strokeColor=#b85450;" vertex="1" parent="1">
          <mxGeometry x="612" y="340" width="88" height="60" as="geometry" />
        </mxCell>
        <mxCell id="dIz83t2OZfv5tZXX2gFK-52" style="edgeStyle=orthogonalEdgeStyle;rounded=0;orthogonalLoop=1;jettySize=auto;html=1;entryX=0.5;entryY=0;entryDx=0;entryDy=0;" edge="1" parent="1" source="dIz83t2OZfv5tZXX2gFK-38" target="dIz83t2OZfv5tZXX2gFK-47">
          <mxGeometry relative="1" as="geometry" />
        </mxCell>
        <mxCell id="dIz83t2OZfv5tZXX2gFK-38" value="Calculate self-score" style="rounded=1;whiteSpace=wrap;html=1;absoluteArcSize=1;arcSize=14;strokeWidth=2;fillColor=#dae8fc;strokeColor=#6c8ebf;" vertex="1" parent="1">
          <mxGeometry x="440" y="350" width="100" height="100" as="geometry" />
        </mxCell>
        <mxCell id="dIz83t2OZfv5tZXX2gFK-45" style="edgeStyle=orthogonalEdgeStyle;rounded=0;orthogonalLoop=1;jettySize=auto;html=1;entryX=1;entryY=0.5;entryDx=0;entryDy=0;entryPerimeter=0;" edge="1" parent="1" source="dIz83t2OZfv5tZXX2gFK-30" target="dIz83t2OZfv5tZXX2gFK-36">
          <mxGeometry relative="1" as="geometry" />
        </mxCell>
        <mxCell id="dIz83t2OZfv5tZXX2gFK-46" style="edgeStyle=orthogonalEdgeStyle;rounded=0;orthogonalLoop=1;jettySize=auto;html=1;entryX=1;entryY=0.5;entryDx=0;entryDy=0;entryPerimeter=0;" edge="1" parent="1" source="dIz83t2OZfv5tZXX2gFK-30" target="dIz83t2OZfv5tZXX2gFK-34">
          <mxGeometry relative="1" as="geometry" />
        </mxCell>
        <mxCell id="dIz83t2OZfv5tZXX2gFK-61" style="edgeStyle=orthogonalEdgeStyle;rounded=0;orthogonalLoop=1;jettySize=auto;html=1;entryX=1;entryY=0.5;entryDx=0;entryDy=0;" edge="1" parent="1" source="dIz83t2OZfv5tZXX2gFK-47" target="dIz83t2OZfv5tZXX2gFK-55">
          <mxGeometry relative="1" as="geometry" />
        </mxCell>
        <mxCell id="dIz83t2OZfv5tZXX2gFK-47" value="Run BLASTp" style="rounded=1;whiteSpace=wrap;html=1;absoluteArcSize=1;arcSize=14;strokeWidth=2;fillColor=#dae8fc;strokeColor=#6c8ebf;" vertex="1" parent="1">
          <mxGeometry x="440" y="480" width="100" height="100" as="geometry" />
        </mxCell>
        <mxCell id="dIz83t2OZfv5tZXX2gFK-50" value="self_score_&lt;div&gt;folder&lt;/div&gt;" style="strokeWidth=2;html=1;shape=mxgraph.flowchart.multi-document;whiteSpace=wrap;fillColor=#f8cecc;strokeColor=#b85450;" vertex="1" parent="1">
          <mxGeometry x="310" y="370" width="88" height="60" as="geometry" />
        </mxCell>
        <mxCell id="dIz83t2OZfv5tZXX2gFK-51" style="edgeStyle=orthogonalEdgeStyle;rounded=0;orthogonalLoop=1;jettySize=auto;html=1;entryX=1;entryY=0.5;entryDx=0;entryDy=0;entryPerimeter=0;" edge="1" parent="1" source="dIz83t2OZfv5tZXX2gFK-38" target="dIz83t2OZfv5tZXX2gFK-50">
          <mxGeometry relative="1" as="geometry" />
        </mxCell>
        <mxCell id="dIz83t2OZfv5tZXX2gFK-53" value="BLASTp_&lt;div&gt;results&lt;/div&gt;" style="strokeWidth=2;html=1;shape=mxgraph.flowchart.multi-document;whiteSpace=wrap;fillColor=#f8cecc;strokeColor=#b85450;" vertex="1" parent="1">
          <mxGeometry x="446" y="610" width="88" height="60" as="geometry" />
        </mxCell>
        <mxCell id="dIz83t2OZfv5tZXX2gFK-63" style="edgeStyle=orthogonalEdgeStyle;rounded=0;orthogonalLoop=1;jettySize=auto;html=1;entryX=1;entryY=0.5;entryDx=0;entryDy=0;" edge="1" parent="1" source="dIz83t2OZfv5tZXX2gFK-55" target="dIz83t2OZfv5tZXX2gFK-62">
          <mxGeometry relative="1" as="geometry">
            <Array as="points">
              <mxPoint x="290" y="530" />
              <mxPoint x="290" y="410" />
            </Array>
          </mxGeometry>
        </mxCell>
        <mxCell id="dIz83t2OZfv5tZXX2gFK-55" value="Separate BLAST results into classes" style="rounded=1;whiteSpace=wrap;html=1;absoluteArcSize=1;arcSize=14;strokeWidth=2;fillColor=#dae8fc;strokeColor=#6c8ebf;" vertex="1" parent="1">
          <mxGeometry x="304" y="480" width="100" height="100" as="geometry" />
        </mxCell>
        <mxCell id="dIz83t2OZfv5tZXX2gFK-60" style="edgeStyle=orthogonalEdgeStyle;rounded=0;orthogonalLoop=1;jettySize=auto;html=1;entryX=0.5;entryY=0;entryDx=0;entryDy=0;entryPerimeter=0;" edge="1" parent="1" source="dIz83t2OZfv5tZXX2gFK-47" target="dIz83t2OZfv5tZXX2gFK-53">
          <mxGeometry relative="1" as="geometry" />
        </mxCell>
        <mxCell id="dIz83t2OZfv5tZXX2gFK-65" style="edgeStyle=orthogonalEdgeStyle;rounded=0;orthogonalLoop=1;jettySize=auto;html=1;entryX=1;entryY=0.5;entryDx=0;entryDy=0;" edge="1" parent="1" source="dIz83t2OZfv5tZXX2gFK-62" target="dIz83t2OZfv5tZXX2gFK-64">
          <mxGeometry relative="1" as="geometry" />
        </mxCell>
        <mxCell id="dIz83t2OZfv5tZXX2gFK-62" value="Process Classes" style="rounded=1;whiteSpace=wrap;html=1;absoluteArcSize=1;arcSize=14;strokeWidth=2;fillColor=#dae8fc;strokeColor=#6c8ebf;" vertex="1" parent="1">
          <mxGeometry x="170" y="360" width="100" height="100" as="geometry" />
        </mxCell>
        <mxCell id="dIz83t2OZfv5tZXX2gFK-67" style="edgeStyle=orthogonalEdgeStyle;rounded=0;orthogonalLoop=1;jettySize=auto;html=1;entryX=0.5;entryY=0;entryDx=0;entryDy=0;" edge="1" parent="1" source="dIz83t2OZfv5tZXX2gFK-64" target="dIz83t2OZfv5tZXX2gFK-66">
          <mxGeometry relative="1" as="geometry" />
        </mxCell>
        <mxCell id="dIz83t2OZfv5tZXX2gFK-64" value="Extract Results" style="rounded=1;whiteSpace=wrap;html=1;absoluteArcSize=1;arcSize=14;strokeWidth=2;fillColor=#dae8fc;strokeColor=#6c8ebf;" vertex="1" parent="1">
          <mxGeometry x="40" y="360" width="100" height="100" as="geometry" />
        </mxCell>
        <mxCell id="dIz83t2OZfv5tZXX2gFK-69" style="edgeStyle=orthogonalEdgeStyle;rounded=0;orthogonalLoop=1;jettySize=auto;html=1;" edge="1" parent="1" source="dIz83t2OZfv5tZXX2gFK-66" target="dIz83t2OZfv5tZXX2gFK-68">
          <mxGeometry relative="1" as="geometry" />
        </mxCell>
        <mxCell id="dIz83t2OZfv5tZXX2gFK-75" style="edgeStyle=orthogonalEdgeStyle;rounded=0;orthogonalLoop=1;jettySize=auto;html=1;entryX=0.5;entryY=0;entryDx=0;entryDy=0;" edge="1" parent="1" source="dIz83t2OZfv5tZXX2gFK-66" target="dIz83t2OZfv5tZXX2gFK-74">
          <mxGeometry relative="1" as="geometry" />
        </mxCell>
        <mxCell id="dIz83t2OZfv5tZXX2gFK-66" value="Write BLAST summary results" style="rounded=1;whiteSpace=wrap;html=1;absoluteArcSize=1;arcSize=14;strokeWidth=2;fillColor=#dae8fc;strokeColor=#6c8ebf;" vertex="1" parent="1">
          <mxGeometry x="40" y="490" width="100" height="100" as="geometry" />
        </mxCell>
        <mxCell id="dIz83t2OZfv5tZXX2gFK-68" value="recommendations.tsv" style="strokeWidth=2;html=1;shape=mxgraph.flowchart.document2;whiteSpace=wrap;size=0.25;fillColor=#d5e8d4;strokeColor=#82b366;" vertex="1" parent="1">
          <mxGeometry x="180" y="470" width="100" height="60" as="geometry" />
        </mxCell>
        <mxCell id="dIz83t2OZfv5tZXX2gFK-70" value="related_matches.tsv" style="strokeWidth=2;html=1;shape=mxgraph.flowchart.document2;whiteSpace=wrap;size=0.25;fillColor=#d5e8d4;strokeColor=#82b366;" vertex="1" parent="1">
          <mxGeometry x="180" y="550" width="100" height="60" as="geometry" />
        </mxCell>
        <mxCell id="dIz83t2OZfv5tZXX2gFK-71" style="edgeStyle=orthogonalEdgeStyle;rounded=0;orthogonalLoop=1;jettySize=auto;html=1;entryX=0;entryY=0.5;entryDx=0;entryDy=0;entryPerimeter=0;" edge="1" parent="1" source="dIz83t2OZfv5tZXX2gFK-66" target="dIz83t2OZfv5tZXX2gFK-70">
          <mxGeometry relative="1" as="geometry" />
        </mxCell>
        <mxCell id="dIz83t2OZfv5tZXX2gFK-72" value="count_results_&lt;div&gt;by_cluster.tsv&lt;/div&gt;" style="strokeWidth=2;html=1;shape=mxgraph.flowchart.document2;whiteSpace=wrap;size=0.25;fillColor=#d5e8d4;strokeColor=#82b366;" vertex="1" parent="1">
          <mxGeometry x="180" y="630" width="100" height="60" as="geometry" />
        </mxCell>
        <mxCell id="dIz83t2OZfv5tZXX2gFK-73" style="edgeStyle=orthogonalEdgeStyle;rounded=0;orthogonalLoop=1;jettySize=auto;html=1;entryX=0;entryY=0.5;entryDx=0;entryDy=0;entryPerimeter=0;" edge="1" parent="1" source="dIz83t2OZfv5tZXX2gFK-66" target="dIz83t2OZfv5tZXX2gFK-72">
          <mxGeometry relative="1" as="geometry" />
        </mxCell>
        <mxCell id="dIz83t2OZfv5tZXX2gFK-83" style="edgeStyle=orthogonalEdgeStyle;rounded=0;orthogonalLoop=1;jettySize=auto;html=1;entryX=0.5;entryY=0;entryDx=0;entryDy=0;" edge="1" parent="1" source="dIz83t2OZfv5tZXX2gFK-74" target="dIz83t2OZfv5tZXX2gFK-82">
          <mxGeometry relative="1" as="geometry" />
        </mxCell>
        <mxCell id="dIz83t2OZfv5tZXX2gFK-74" value="Write BLAST results" style="rounded=1;whiteSpace=wrap;html=1;absoluteArcSize=1;arcSize=14;strokeWidth=2;fillColor=#dae8fc;strokeColor=#6c8ebf;" vertex="1" parent="1">
          <mxGeometry x="40" y="720" width="100" height="100" as="geometry" />
        </mxCell>
        <mxCell id="dIz83t2OZfv5tZXX2gFK-76" value="blast_by_cluster" style="strokeWidth=2;html=1;shape=mxgraph.flowchart.document2;whiteSpace=wrap;size=0.25;fillColor=#f8cecc;strokeColor=#b85450;" vertex="1" parent="1">
          <mxGeometry x="180" y="720" width="100" height="60" as="geometry" />
        </mxCell>
        <mxCell id="dIz83t2OZfv5tZXX2gFK-77" value="blast_results_by_&lt;div&gt;class&lt;/div&gt;" style="strokeWidth=2;html=1;shape=mxgraph.flowchart.document2;whiteSpace=wrap;size=0.25;fillColor=#f8cecc;strokeColor=#b85450;" vertex="1" parent="1">
          <mxGeometry x="180" y="800" width="100" height="60" as="geometry" />
        </mxCell>
        <mxCell id="dIz83t2OZfv5tZXX2gFK-78" value="blast_all_&lt;div&gt;matches.tsv&lt;/div&gt;" style="strokeWidth=2;html=1;shape=mxgraph.flowchart.document2;whiteSpace=wrap;size=0.25;fillColor=#f8cecc;strokeColor=#b85450;" vertex="1" parent="1">
          <mxGeometry x="180" y="880" width="100" height="60" as="geometry" />
        </mxCell>
        <mxCell id="dIz83t2OZfv5tZXX2gFK-79" style="edgeStyle=orthogonalEdgeStyle;rounded=0;orthogonalLoop=1;jettySize=auto;html=1;entryX=0;entryY=0.5;entryDx=0;entryDy=0;entryPerimeter=0;" edge="1" parent="1" source="dIz83t2OZfv5tZXX2gFK-74" target="dIz83t2OZfv5tZXX2gFK-76">
          <mxGeometry relative="1" as="geometry" />
        </mxCell>
        <mxCell id="dIz83t2OZfv5tZXX2gFK-80" style="edgeStyle=orthogonalEdgeStyle;rounded=0;orthogonalLoop=1;jettySize=auto;html=1;entryX=0;entryY=0.5;entryDx=0;entryDy=0;entryPerimeter=0;" edge="1" parent="1" source="dIz83t2OZfv5tZXX2gFK-74" target="dIz83t2OZfv5tZXX2gFK-77">
          <mxGeometry relative="1" as="geometry" />
        </mxCell>
        <mxCell id="dIz83t2OZfv5tZXX2gFK-81" style="edgeStyle=orthogonalEdgeStyle;rounded=0;orthogonalLoop=1;jettySize=auto;html=1;entryX=0;entryY=0.5;entryDx=0;entryDy=0;entryPerimeter=0;" edge="1" parent="1" source="dIz83t2OZfv5tZXX2gFK-74" target="dIz83t2OZfv5tZXX2gFK-78">
          <mxGeometry relative="1" as="geometry" />
        </mxCell>
        <mxCell id="dIz83t2OZfv5tZXX2gFK-82" value="Write dropped CDS and dropped possible new loci" style="rounded=1;whiteSpace=wrap;html=1;absoluteArcSize=1;arcSize=14;strokeWidth=2;fillColor=#dae8fc;strokeColor=#6c8ebf;" vertex="1" parent="1">
          <mxGeometry x="40" y="960" width="100" height="100" as="geometry" />
        </mxCell>
        <mxCell id="dIz83t2OZfv5tZXX2gFK-84" value="dropped_cds.tsv" style="strokeWidth=2;html=1;shape=mxgraph.flowchart.document2;whiteSpace=wrap;size=0.25;fillColor=#f8cecc;strokeColor=#b85450;" vertex="1" parent="1">
          <mxGeometry x="180" y="950" width="100" height="60" as="geometry" />
        </mxCell>
        <mxCell id="dIz83t2OZfv5tZXX2gFK-85" style="edgeStyle=orthogonalEdgeStyle;rounded=0;orthogonalLoop=1;jettySize=auto;html=1;entryX=0;entryY=0.5;entryDx=0;entryDy=0;entryPerimeter=0;" edge="1" parent="1" source="dIz83t2OZfv5tZXX2gFK-82" target="dIz83t2OZfv5tZXX2gFK-84">
          <mxGeometry relative="1" as="geometry" />
        </mxCell>
        <mxCell id="dIz83t2OZfv5tZXX2gFK-86" value="drop_loci_reason.tsv" style="strokeWidth=2;html=1;shape=mxgraph.flowchart.document2;whiteSpace=wrap;size=0.25;fillColor=#f8cecc;strokeColor=#b85450;" vertex="1" parent="1">
          <mxGeometry x="180" y="1010" width="100" height="60" as="geometry" />
        </mxCell>
        <mxCell id="dIz83t2OZfv5tZXX2gFK-87" style="edgeStyle=orthogonalEdgeStyle;rounded=0;orthogonalLoop=1;jettySize=auto;html=1;entryX=0;entryY=0.5;entryDx=0;entryDy=0;entryPerimeter=0;" edge="1" parent="1" source="dIz83t2OZfv5tZXX2gFK-82" target="dIz83t2OZfv5tZXX2gFK-86">
          <mxGeometry relative="1" as="geometry" />
        </mxCell>
        <mxCell id="dIz83t2OZfv5tZXX2gFK-88" value="Processes" style="rounded=0;whiteSpace=wrap;html=1;fillColor=#dae8fc;strokeColor=#6c8ebf;" vertex="1" parent="1">
          <mxGeometry x="690" y="785" width="120" height="60" as="geometry" />
        </mxCell>
        <mxCell id="dIz83t2OZfv5tZXX2gFK-89" value="Temporary files" style="rounded=0;whiteSpace=wrap;html=1;fillColor=#f8cecc;strokeColor=#b85450;" vertex="1" parent="1">
          <mxGeometry x="690" y="865" width="120" height="60" as="geometry" />
        </mxCell>
        <mxCell id="dIz83t2OZfv5tZXX2gFK-90" value="Input files" style="rounded=0;whiteSpace=wrap;html=1;fillColor=#e1d5e7;strokeColor=#9673a6;" vertex="1" parent="1">
          <mxGeometry x="690" y="705" width="120" height="60" as="geometry" />
        </mxCell>
        <mxCell id="dIz83t2OZfv5tZXX2gFK-91" value="Output files" style="rounded=0;whiteSpace=wrap;html=1;fillColor=#d5e8d4;strokeColor=#82b366;" vertex="1" parent="1">
          <mxGeometry x="690" y="945" width="120" height="60" as="geometry" />
        </mxCell>
        <mxCell id="dIz83t2OZfv5tZXX2gFK-92" value="Color description:" style="text;html=1;align=center;verticalAlign=middle;resizable=0;points=[];autosize=1;strokeColor=none;fillColor=none;" vertex="1" parent="1">
          <mxGeometry x="580" y="660" width="110" height="30" as="geometry" />
        </mxCell>
      </root>
    </mxGraphModel>
  </diagram>
</mxfile>
